<?xml version="1.0" encoding="utf-8"?>
<!-- Generator: Adobe Illustrator 23.0.3, SVG Export Plug-In . SVG Version: 6.00 Build 0)  -->
<svg version="1.1" id="Layer_1" xmlns="http://www.w3.org/2000/svg" xmlns:xlink="http://www.w3.org/1999/xlink" x="0px" y="0px"
	 viewBox="0 0 111 151.07" style="enable-background:new 0 0 111 151.07;" xml:space="preserve">
<style type="text/css">
	.st0{fill:#F58144;}
	.st1{fill:#FFFFFF;}
	.st2{fill:#CC296A;}
	.st3{fill:none;stroke:#CC296A;stroke-width:3;stroke-miterlimit:10;}
</style>
<g>
	<path class="st0" d="M92.55,99.57c3-4.61,7.73-12.27,10.52-17.01c0,0,7.93-13.47,7.93-27.06C111,24.85,86.15,0,55.5,0
		S0,24.85,0,55.5c0,15.13,10.31,30.54,10.31,30.54c3.06,4.57,8.01,12.08,11.01,16.7l29.14,44.88c3,4.61,7.9,4.61,10.89,0
		L92.55,99.57z"/>
</g>
<circle class="st1" cx="55.5" cy="53.5" r="38.5"/>
<g>
	<path class="st2" d="M66.97,41.02C66.71,34.38,61.64,29,55.5,29s-11.21,5.38-11.47,12.02H44v10.59c0,0.01,0,0.01,0,0.02v1.42h0.08
		c0.65,6.24,5.55,11.15,11.42,11.15s10.77-4.91,11.42-11.15H67v-1.42c0-0.01,0-0.01,0-0.02V41.02H66.97z"/>
	<path class="st3" d="M71.5,53c0,9.05-7.45,16.5-16.5,16.5c-8.83,0-16.17-7.08-16.49-15.9"/>
	<line class="st3" x1="55.5" y1="69.5" x2="55.5" y2="77.5"/>
	<line class="st3" x1="49" y1="77.5" x2="62.5" y2="77.5"/>
</g>
</svg>
